<?xml version="1.0" standalone="no"?><!DOCTYPE svg PUBLIC "-//W3C//DTD SVG 1.1//EN" "http://www.w3.org/Graphics/SVG/1.1/DTD/svg11.dtd"><svg t="1578675019613" class="icon" viewBox="0 0 1024 1024" version="1.1" xmlns="http://www.w3.org/2000/svg" p-id="2095" xmlns:xlink="http://www.w3.org/1999/xlink" width="16" height="16"><defs><style type="text/css"></style></defs><path d="M896 192H524.8l-150.4-121.6c-9.6-3.2-16-6.4-22.4-6.4H128C73.6 64 32 105.6 32 160v704c0 54.4 41.6 96 96 96h768c54.4 0 96-41.6 96-96V288c0-54.4-41.6-96-96-96z m32 672c0 19.2-12.8 32-32 32H128c-19.2 0-32-12.8-32-32V448h832v416z m0-480H96V160c0-19.2 12.8-32 32-32h211.2l150.4 121.6c9.6 3.2 16 6.4 22.4 6.4h384c19.2 0 32 12.8 32 32v96z" p-id="2096" fill="#bfbfbf"></path></svg>