<?xml version="1.0" standalone="no"?><!DOCTYPE svg PUBLIC "-//W3C//DTD SVG 1.1//EN" "http://www.w3.org/Graphics/SVG/1.1/DTD/svg11.dtd"><svg t="1578673085857" class="icon" viewBox="0 0 1024 1024" version="1.1" xmlns="http://www.w3.org/2000/svg" p-id="2189" xmlns:xlink="http://www.w3.org/1999/xlink" width="16" height="16"><defs><style type="text/css"></style></defs><path d="M373.344 770.688c-17.824 0-33.248-7.936-36.864-25.408l-49.952-239.136-32.896 56.8c-6.752 11.456-19.104 19.616-32.384 19.616H39.328a37.632 37.632 0 0 1 0-75.264h160.416l71.52-120.864a37.632 37.632 0 1 1 69.216 11.488l30.24 146.144L439.68 161.472a37.12 37.12 0 0 1 37.056-30.368h0.16c18.272 0 33.856 12.672 36.928 30.656l73.6 429.472 23.68-60c5.632-14.4 19.52-23.968 34.976-23.968h333.888a37.632 37.632 0 0 1 0 75.264h-308.32l-63.68 160.96A37.6 37.6 0 0 1 535.904 736L475.84 385.088 410.368 744.32c-3.2 17.728-18.528 26.368-36.544 26.368h-0.48z" fill="#bfbfbf" p-id="2190"></path></svg>